<svg enable-background="new 0 -33 155.5 144" height="144" viewBox="0 -33 155.5 144" width="155.5" xmlns="http://www.w3.org/2000/svg"><path d="m46.272 36.9c.055.248.089 1.25.105 1.724.078 2.471.195 6.202 2.63 9.543.582.803 1.267 1.513 2.036 2.165h4.251l.029-.06c-1.92-.918-3.315-2.034-4.389-3.507-2-2.75-2.096-5.779-2.175-8.266-.04-1.194-.077-1.83-.238-2.375-.112-.259-.364-.654-1.082-1.7-1.324-1.933-3.136-4.58-3.136-8.08 0-3.504 1.888-6.259 3.137-8.079.627-.915.972-1.443 1.165-1.944.076-.298.112-.808.157-2.187.077-2.433.176-5.462 2.176-8.212 2.018-2.77 4.881-3.795 7.183-4.62 1.098-.393 1.718-.633 2.19-.952.222-.193.546-.582 1.33-1.604 1.502-1.949 3.372-4.373 6.664-5.442.981-.319 2.038-.482 3.136-.482 1.985 0 3.808.529 5.29.959 1.202.349 1.847.517 2.364.535.402-.019 1.044-.186 2.264-.54 1.464-.426 3.287-.955 5.273-.955 1.099 0 2.155.163 3.142.482 3.29 1.069 5.158 3.495 6.658 5.442.694.903 1.102 1.408 1.543 1.763.285.175.841.386 1.979.794 2.301.825 5.163 1.851 7.181 4.62 2 2.75 2.099 5.779 2.178 8.217.038 1.194.076 1.872.241 2.433.12.279.431.747 1.078 1.693 1.25 1.821 3.138 4.575 3.138 8.079 0 3.5-1.812 6.147-3.136 8.08-.625.91-.968 1.437-1.164 1.942-.084.328-.114.892-.158 2.185-.078 2.435-.174 5.465-2.178 8.219-1.071 1.471-2.464 2.584-4.385 3.502l.028.06h4.253c.766-.65 1.45-1.36 2.032-2.161 2.436-3.345 2.553-7.076 2.634-9.609.019-.559.038-1.349.027-1.436.126-.28.579-.92.878-1.354 1.415-2.067 3.553-5.189 3.553-9.427 0-4.242-2.14-7.365-3.557-9.43-.299-.435-.747-1.078-.798-1.12-.059-.261-.092-1.327-.105-1.735-.079-2.468-.198-6.198-2.633-9.54-2.448-3.365-5.973-4.626-8.303-5.462-.524-.188-1.302-.458-1.388-.472-.189-.172-.814-.985-1.051-1.292-1.521-1.974-3.817-4.959-7.812-6.256-1.224-.398-2.527-.599-3.877-.599-2.326 0-4.414.605-5.957 1.053-.43.126-1.436.419-1.57.442-.267-.023-1.278-.317-1.729-.447-1.523-.442-3.611-1.048-5.936-1.048-1.351 0-2.654.201-3.873.599-3.995 1.297-6.293 4.28-7.818 6.259-.332.431-.817 1.073-.856 1.148-.223.128-1.207.482-1.577.615-2.332.836-5.857 2.098-8.307 5.462-2.433 3.341-2.552 7.071-2.632 9.544-.018.566-.038 1.402-.029 1.502-.126.277-.578.917-.875 1.348-1.415 2.066-3.555 5.188-3.555 9.43 0 4.238 2.138 7.36 3.555 9.43.299.432.746 1.073.801 1.124z" fill="#386b72"/><path d="m55.437 43.492c1.715 2.361 5.683 2.552 8.042 4.269.9.653 1.658 1.608 2.415 2.586h26.281c.755-.977 1.516-1.932 2.416-2.586 2.359-1.716 6.327-1.908 8.042-4.266 1.701-2.337.667-6.161 1.579-8.966.879-2.708 3.99-5.181 3.99-8.182s-3.111-5.474-3.992-8.182c-.911-2.806.122-6.629-1.578-8.964-1.717-2.359-5.683-2.55-8.042-4.266-2.336-1.7-3.733-5.423-6.539-6.333-2.708-.881-6.016 1.283-9.017 1.283s-6.309-2.163-9.015-1.283c-2.808.91-4.204 4.633-6.54 6.333-2.359 1.716-6.326 1.907-8.043 4.266-1.7 2.335-.667 6.158-1.578 8.964-.881 2.708-3.992 5.181-3.992 8.182 0 3.002 3.111 5.474 3.99 8.182.914 2.804-.12 6.627 1.581 8.963z" fill="#386b72"/><path d="m73.181 23.886.62-.1c2.449-.408 4.676-.541 6.69-.419.188-.249.273-.53.185-.831-.188-.647-.851-.896-2.249-.952-1.998-.081-3.487-.575-3.965-2.223-.44-1.516.275-2.992 1.997-3.863l-.468-1.618 1.67-.485.432 1.497c1.134-.289 1.972-.256 2.646-.153l.047 2.068c-.483-.079-1.398-.242-2.625.114-1.102.321-1.317.915-1.181 1.397.158.545.861.745 2.482.848 2.229.128 3.3.831 3.749 2.379.21.727.146 1.465-.164 2.142 2.415.47 4.455 1.383 6.097 2.766 1.088-1.761 1.746-3.812 1.746-6.031 0-6.35-5.149-11.498-11.499-11.498-6.353 0-11.501 5.148-11.501 11.498 0 2.235.664 4.305 1.767 6.068 1.158-1.47 2.259-2.436 3.524-2.604z" fill="#fff"/><path d="m91.525 30.948c-4.126-8.533-14.249-6.843-17.581-6.279l-.644.102c-1.568.209-3.062 2.275-4.852 4.955-.584.875-1.247 1.865-1.547 2.09-.377.284-1.334.366-2.179.433-1.209.1-2.461.205-3.224.873-1.26 1.103-1.944 5.515-2.066 6.393l.244.804h4.316l.194-1.411h-3.234c.356-2.075.965-4.28 1.475-4.727.413-.363 1.475-.449 2.412-.531 1.134-.093 2.205-.179 2.907-.706.47-.352.992-1.115 1.873-2.436 1.051-1.572 2.808-4.203 3.866-4.34l.692-.112c3.065-.512 12.409-2.079 16.08 5.5 2.224 4.605 2.944 6.547 3.172 7.351h-1.693l.347 1.411 1.794-.051.507.16.327-.351c.381-.405.809-.869-3.186-9.128z" fill="#fff"/><path d="m68.593 36.052c-2.255 0-4.091 1.837-4.091 4.089 0 2.258 1.836 4.092 4.091 4.092s4.091-1.834 4.091-4.092c.001-2.251-1.836-4.089-4.091-4.089zm0 6.774c-1.479 0-2.681-1.204-2.681-2.684 0-1.476 1.202-2.68 2.681-2.68 1.478 0 2.682 1.204 2.682 2.68.001 1.48-1.203 2.684-2.682 2.684z" fill="#fff"/><path d="m87.503 36.052c-2.256 0-4.09 1.837-4.09 4.089 0 2.258 1.834 4.092 4.09 4.092s4.09-1.834 4.09-4.092c0-2.251-1.835-4.089-4.09-4.089zm0 6.774c-1.479 0-2.681-1.204-2.681-2.684 0-1.476 1.202-2.68 2.681-2.68s2.681 1.204 2.681 2.68c0 1.48-1.202 2.684-2.681 2.684z" fill="#fff"/><path d="m73.19 40.321h9.639l.227-1.411h-10.127z" fill="#fff"/><path d="m89.467 26.834c1.2-1.865 1.897-4.084 1.897-6.457 0-6.606-5.373-11.977-11.977-11.977-6.603 0-11.976 5.371-11.976 11.977 0 2.456.743 4.743 2.018 6.648l-1.771 2.354c-1.92-2.494-3.064-5.618-3.064-9.002 0-8.157 6.636-14.795 14.793-14.795 8.158 0 14.793 6.638 14.793 14.795 0 3.243-1.051 6.247-2.83 8.692z" fill="#fff"/><g fill="#0c344f"><path d="m18.211 63.951c-.539 0-1.117-.069-1.734-.209-.617-.138-1.177-.407-1.681-.807-.295-.243-.543-.534-.742-.873-.201-.339-.365-.703-.496-1.094-.13-.391-.226-.79-.286-1.199-.061-.407-.092-.811-.092-1.211 0-.173 0-.339 0-.495 0-.157.017-.314.052-.469.121-1.512.686-2.684 1.694-3.518.295-.243.661-.477 1.094-.703.435-.226.86-.339 1.278-.339h8.625c.174 0 .261.087.261.261v2.867c0 .174-.087.261-.261.261h-7.531c-.243 0-.465.109-.665.326s-.343.421-.43.612c-.088.174-.139.348-.157.521-.017.174-.025.348-.025.521 0 .279.016.565.052.86.035.296.156.557.364.782.191.191.456.304.795.339s.708.052 1.108.052h2.919c.539 0 1.104.074 1.694.222s1.138.43 1.642.847c.295.243.543.539.743.886.2.348.364.722.495 1.121.13.4.222.816.274 1.251s.078.851.078 1.251v.547c0 .157-.018.304-.053.443-.138 1.582-.694 2.797-1.667 3.648-.295.244-.656.483-1.081.717-.427.235-.831.352-1.212.352h-9.486c-.174 0-.261-.087-.261-.261v-2.87c0-.173.087-.261.261-.261h8.391c.261 0 .487-.126.678-.378.19-.251.33-.483.416-.691.087-.19.139-.373.157-.547.017-.174.025-.356.025-.548 0-.278-.017-.569-.052-.872-.035-.304-.156-.578-.364-.822-.174-.19-.421-.326-.743-.404-.322-.077-.699-.117-1.133-.117h-2.944z"/><path d="m29.182 57.02c0-1.182.322-2.142.964-2.88s1.573-1.108 2.788-1.108h8.835c.225 0 .339.087.339.261v2.867c0 .174-.088.261-.261.261h-8.626c-.174 0-.261.096-.261.286v3.545c0 .174.087.261.261.261h8c.174 0 .261.088.261.261v2.997c0 .174-.087.261-.261.261h-8c-.174 0-.261.088-.261.261v3.779c0 .174.087.261.261.261h8.626c.173 0 .261.088.261.261v2.867c0 .174-.088.261-.261.261h-10.086c-.313 0-.625-.082-.938-.247s-.591-.378-.834-.638c-.244-.261-.44-.552-.586-.873-.149-.322-.222-.647-.222-.977v-11.967z"/><path d="m57.666 53.032c.173 0 .261.087.261.261v2.867c0 .174-.088.261-.261.261h-7.975c-.157 0-.339.065-.548.195-.208.13-.403.295-.586.495-.182.201-.338.408-.468.626-.13.217-.195.403-.195.56v6.802c0 .955.217 1.729.652 2.319.434.59.989.886 1.667.886h3.179c.33 0 .621-.06.873-.182.251-.121.46-.269.625-.443.165-.173.287-.36.365-.56.077-.2.117-.379.117-.534v-2.425c0-.173-.088-.261-.261-.261h-4.248c-.174 0-.261-.087-.261-.261v-2.867c0-.173.087-.261.261-.261h8.105c.173 0 .261.088.261.261v5.864c0 .4-.092.891-.274 1.472-.182.582-.483 1.138-.899 1.668-.417.53-.969.986-1.655 1.368s-1.542.573-2.567.573h-4.534c-.834 0-1.573-.191-2.215-.573-.643-.382-1.186-.864-1.629-1.447-.443-.582-.778-1.225-1.004-1.928-.226-.704-.338-1.385-.338-2.046v-7.401c0-.574.125-1.173.378-1.799.251-.625.595-1.198 1.029-1.719s.939-.947 1.512-1.278c.573-.33 1.19-.495 1.85-.495h5.395 3.388z"/><path d="m71.739 53.032h3.258c.173 0 .261.087.261.261v12.379c0 .625-.036 1.177-.105 1.654-.069.478-.165.865-.286 1.161-.105.278-.257.569-.456.872-.201.304-.421.586-.665.847-.261.261-.565.483-.912.665-.348.182-.678.335-.991.456-.313.103-.661.195-1.043.273-.383.078-.799.117-1.251.117h-3.049c-.573 0-1.108-.061-1.602-.182-.496-.121-.917-.295-1.264-.521-.364-.226-.678-.469-.939-.73-.33-.33-.608-.669-.834-1.016-.226-.383-.404-.786-.534-1.212s-.195-.882-.195-1.368v-13.395c0-.174.088-.261.261-.261h3.258c.174 0 .261.087.261.261v12.718c0 .208.04.447.118.717.077.269.195.521.351.755.157.234.352.435.586.6.235.165.508.247.822.247h2.736c.295 0 .564-.082.807-.247s.447-.365.613-.6c.165-.234.295-.487.391-.755.095-.27.144-.517.144-.743v-12.692c-.002-.174.085-.261.259-.261z"/><path d="m77.602 53.032h9.694c.486 0 .964.096 1.433.286.469.191.929.521 1.381.991.782.817 1.198 2.05 1.25 3.7v.6c0 1.529-.182 2.642-.547 3.336-.243.348-.496.665-.756.951-.261.287-.617.552-1.068.795-.017.017-.04.044-.065.078-.026.035-.04.078-.04.13 0 .035.009.069.026.104.399.521.682.977.847 1.368s.317.795.456 1.212l1.433 4.404c.035.139.1.266.195.378.096.114.144.187.144.222 0 .088-.052.13-.157.13h-3.597c-.104 0-.217-.092-.338-.274-.122-.182-.201-.334-.235-.456l-1.616-4.561c-.243-.972-.739-1.512-1.485-1.616h-3.179c-.174 0-.261.088-.261.261v6.385c0 .174-.088.261-.261.261h-3.258c-.174 0-.261-.087-.261-.261v-18.163c.005-.174.091-.261.265-.261zm3.779 3.388c-.174 0-.261.087-.261.261v4.248c0 .173.095.261.286.261h4.717c.243 0 .512-.122.807-.365.243-.209.431-.512.561-.912.13-.399.195-.842.195-1.328 0-.243-.013-.465-.04-.665-.025-.2-.082-.387-.169-.561-.278-.573-.609-.886-.991-.938h-5.105z"/><path d="m93.108 62.362c0-1.025.008-1.912.025-2.659.017-.746.069-1.355.157-1.824.138-.677.286-1.285.443-1.824.157-.537.364-.981.625-1.328.348-.452.782-.847 1.303-1.186s1.077-.577 1.668-.717c.416-.087.964-.138 1.642-.157.677-.016 1.485-.025 2.423-.025.939 0 1.747.009 2.424.025.678.018 1.225.07 1.642.157.59.139 1.146.378 1.667.717s.956.734 1.303 1.186c.261.347.469.791.626 1.328.156.54.303 1.147.443 1.824.087.469.138 1.078.157 1.824.016.747.025 1.634.025 2.659v.156c0 1.025-.009 1.912-.025 2.658-.018.747-.07 1.356-.157 1.824-.139.678-.287 1.287-.443 1.824-.157.54-.365.982-.626 1.329-.347.452-.782.847-1.303 1.186s-1.077.577-1.667.717c-.417.087-.964.138-1.642.156-.677.017-1.485.026-2.424.026-.938 0-1.746-.009-2.423-.026-.678-.017-1.226-.069-1.642-.156-.591-.139-1.147-.378-1.668-.717s-.955-.734-1.303-1.186c-.261-.347-.468-.79-.625-1.329-.157-.538-.304-1.146-.443-1.824-.088-.468-.139-1.077-.157-1.824-.017-.746-.025-1.633-.025-2.658zm6.75-6.086c-.487.026-.904.082-1.251.169-.625.157-1.068.465-1.328.925-.261.461-.391 1.151-.391 2.072v5.994c0 .921.13 1.613.391 2.073s.703.769 1.328.924c.347.088.765.144 1.251.17.487.025.999.039 1.537.039.539 0 1.052-.013 1.538-.039s.903-.082 1.251-.17c.625-.156 1.068-.464 1.328-.924s.391-1.151.391-2.073v-5.994c0-.92-.13-1.61-.391-2.072-.261-.46-.703-.769-1.328-.925-.348-.087-.766-.143-1.251-.169-.487-.026-1-.039-1.538-.039-.539.001-1.051.013-1.537.039z"/><path d="m114.973 71.457v-18.164c0-.174.087-.261.261-.261h8.886c.991 0 1.846.191 2.567.573.721.383 1.316.878 1.785 1.485.469.609.812 1.303 1.03 2.085.217.782.326 1.573.326 2.372v6.255c0 .677-.109 1.368-.326 2.072-.218.703-.561 1.342-1.03 1.916-.468.573-1.06 1.038-1.771 1.394-.713.356-1.564.534-2.554.534h-8.912c-.176-.001-.262-.087-.262-.261zm3.778-3.388c0 .174.087.261.261.261h4.664c.278 0 .56-.073.847-.222.287-.147.543-.338.769-.573.226-.234.408-.495.548-.782.138-.286.209-.577.209-.872v-6.933c0-.313-.078-.621-.235-.925-.156-.303-.356-.573-.6-.807-.243-.235-.517-.426-.82-.574-.304-.147-.613-.221-.925-.221h-4.456c-.174 0-.261.087-.261.261v11.387z"/><path d="m131.807 57.02c0-1.182.322-2.142.964-2.88s1.573-1.108 2.788-1.108h8.835c.225 0 .339.087.339.261v2.867c0 .174-.088.261-.261.261h-8.626c-.174 0-.261.096-.261.286v3.545c0 .174.087.261.261.261h8c.174 0 .261.088.261.261v2.997c0 .174-.087.261-.261.261h-8c-.174 0-.261.088-.261.261v3.779c0 .174.087.261.261.261h8.626c.173 0 .261.088.261.261v2.867c0 .174-.088.261-.261.261h-10.086c-.313 0-.625-.082-.938-.247s-.591-.378-.834-.638c-.244-.261-.44-.552-.586-.873-.149-.322-.222-.647-.222-.977v-11.967z"/><path d="m15.548 77.421c.133-.434.378-.705.734-.816.355-.112.839-.167 1.451-.167.634 0 1.132.055 1.493.167.361.111.609.383.742.816l3.352 10.875c0 .066-.039.1-.117.1h-2.185c-.111 0-.183-.05-.217-.15l-.884-2.886c-.034-.111-.106-.167-.217-.167h-3.92c-.111 0-.183.061-.217.183l-.884 2.852c-.034.111-.106.167-.217.167h-2.168c-.089 0-.133-.034-.133-.1zm2.385 1.485c-.034-.123-.061-.204-.083-.242-.022-.039-.061-.058-.117-.058-.055 0-.116.1-.183.3l-1.168 3.802c0 .022-.003.039-.008.05-.006.011-.008.022-.008.034 0 .078.044.117.133.117h2.485c.089 0 .133-.039.133-.117 0-.011-.003-.022-.008-.034-.006-.011-.008-.027-.008-.05z"/><path d="m30.575 76.438h2.085c.111 0 .167.055.167.167v7.922c0 .4-.022.753-.066 1.059-.045.306-.106.554-.184.742-.066.178-.164.364-.291.559-.128.194-.27.376-.426.543-.167.167-.361.308-.584.426-.222.116-.434.214-.633.291-.201.067-.422.125-.668.175-.244.05-.511.075-.8.075h-1.951c-.366 0-.709-.039-1.026-.117-.317-.077-.586-.188-.808-.333-.234-.145-.434-.3-.601-.467-.212-.211-.389-.428-.533-.65-.145-.244-.259-.503-.342-.776-.083-.272-.125-.564-.125-.875v-8.572c0-.112.056-.167.167-.167h2.085c.111 0 .167.055.167.167v8.139c0 .133.024.286.074.458.051.173.125.334.226.485.1.15.225.278.375.383.151.106.326.159.525.159h1.752c.188 0 .36-.053.517-.159.155-.105.286-.233.392-.383.105-.151.188-.312.249-.485.061-.172.092-.33.092-.474v-8.123c-.002-.114.054-.169.165-.169z"/><path d="m39.265 88.229c0 .111-.056.167-.167.167h-2.085c-.111 0-.166-.056-.166-.167v-9.457c0-.111-.056-.166-.167-.166h-2.719c-.111 0-.167-.056-.167-.167v-1.834c0-.112.056-.167.167-.167h8.19c.111 0 .167.055.167.167v1.834c0 .111-.056.167-.167.167h-2.719c-.111 0-.167.055-.167.166z"/><path d="m43.235 82.408c0-.656.005-1.223.016-1.701s.045-.867.101-1.168c.089-.434.183-.823.283-1.168.1-.344.233-.628.4-.85.223-.289.501-.543.834-.759.334-.217.69-.37 1.068-.458.267-.056.617-.09 1.051-.101.434-.01.951-.016 1.551-.016.601 0 1.118.006 1.551.016.434.011.784.045 1.051.101.378.089.734.241 1.067.458.334.217.612.47.835.759.166.222.3.506.4.85.1.345.194.734.283 1.168.056.3.09.689.101 1.168.01.478.016 1.045.016 1.701v.1c0 .657-.006 1.224-.016 1.702-.011.477-.045.867-.101 1.167-.089.434-.183.824-.283 1.168-.1.345-.234.629-.4.851-.223.289-.501.542-.835.758-.333.217-.689.37-1.067.459-.267.056-.617.089-1.051.1s-.951.017-1.551.017c-.601 0-1.118-.006-1.551-.017-.434-.011-.784-.044-1.051-.1-.378-.09-.734-.242-1.068-.459-.333-.217-.611-.469-.834-.758-.167-.222-.3-.506-.4-.851-.1-.344-.194-.734-.283-1.168-.056-.299-.09-.689-.101-1.167s-.016-1.045-.016-1.702zm4.319-3.895c-.312.017-.578.053-.8.109-.4.1-.684.297-.851.592-.167.294-.249.736-.249 1.325v3.836c0 .59.082 1.032.249 1.326.167.295.451.492.851.592.222.055.489.092.8.108s.639.025.984.025c.344 0 .673-.009.984-.025.31-.016.577-.053.8-.108.4-.101.684-.297.851-.592.166-.294.249-.736.249-1.326v-3.835c0-.589-.083-1.031-.249-1.325-.167-.295-.451-.493-.851-.592-.223-.056-.49-.092-.8-.109-.312-.016-.64-.024-.984-.024-.344-.001-.672.007-.984.023z"/><path d="m55.127 78.338c0-.366.066-.672.2-.917.133-.244.312-.439.534-.583.222-.145.475-.247.758-.308.284-.061.575-.092.875-.092.478 0 .867.027 1.168.083.3.055.548.18.742.375.194.194.347.487.459.875.111.39.222.918.333 1.585l.901 5.521c.011.045.025.117.042.217s.039.201.067.3c.027.1.055.189.083.267.027.078.052.117.074.117s.051-.039.083-.117c.034-.077.061-.167.083-.267s.045-.197.067-.292c.021-.095.034-.153.034-.175l.866-5.638c.101-.644.209-1.158.326-1.542s.272-.67.467-.859c.194-.189.447-.312.758-.366.312-.056.712-.083 1.201-.083.7 0 1.272.138 1.717.416s.668.756.668 1.434v9.941c0 .111-.056.167-.167.167h-2.085c-.111 0-.167-.056-.167-.167v-9.09c0-.022-.006-.069-.016-.142-.011-.072-.045-.109-.101-.109-.055 0-.097.019-.125.058-.027.04-.052.081-.074.125-.011.022-.025.073-.042.151-.017.077-.034.161-.05.25-.017.089-.034.177-.05.267-.017.089-.032.156-.042.2-.067.278-.131.57-.192.875-.061.306-.148.713-.259 1.219s-.247 1.15-.408 1.934c-.162.784-.376 1.788-.642 3.01-.034.178-.09.35-.167.517s-.186.318-.325.451-.326.241-.559.325c-.234.083-.528.125-.885.125-.322 0-.586-.039-.792-.117-.206-.077-.375-.175-.509-.291-.133-.117-.233-.247-.299-.392-.067-.145-.117-.284-.151-.417l-1.667-7.939c-.011-.022-.031-.086-.059-.191-.027-.106-.064-.164-.108-.175h-.083c-.045 0-.067.039-.067.116v9.24c0 .111-.055.167-.166.167h-2.085c-.112 0-.167-.056-.167-.167v-9.892z"/><path d="m68.92 82.408c0-.656.005-1.223.016-1.701s.045-.867.101-1.168c.089-.434.183-.823.283-1.168.1-.344.233-.628.4-.85.223-.289.501-.543.834-.759.334-.217.69-.37 1.068-.458.267-.056.617-.09 1.051-.101.434-.01.951-.016 1.551-.016.601 0 1.118.006 1.551.016.434.011.784.045 1.051.101.378.089.734.241 1.067.458.334.217.612.47.835.759.166.222.3.506.4.85.1.345.194.734.283 1.168.056.3.09.689.101 1.168.01.478.016 1.045.016 1.701v.1c0 .657-.006 1.224-.016 1.702-.011.477-.045.867-.101 1.167-.089.434-.183.824-.283 1.168-.1.345-.234.629-.4.851-.223.289-.501.542-.835.758-.333.217-.689.37-1.067.459-.267.056-.617.089-1.051.1s-.951.017-1.551.017c-.601 0-1.118-.006-1.551-.017-.434-.011-.784-.044-1.051-.1-.378-.09-.734-.242-1.068-.459-.333-.217-.611-.469-.834-.758-.167-.222-.3-.506-.4-.851-.1-.344-.194-.734-.283-1.168-.056-.299-.09-.689-.101-1.167s-.016-1.045-.016-1.702zm4.319-3.895c-.312.017-.578.053-.8.109-.4.1-.684.297-.851.592-.167.294-.249.736-.249 1.325v3.836c0 .59.082 1.032.249 1.326.167.295.451.492.851.592.222.055.489.092.8.108.312.016.639.025.984.025.344 0 .673-.009.984-.025.31-.016.577-.053.8-.108.4-.101.684-.297.851-.592.166-.294.249-.736.249-1.326v-3.835c0-.589-.083-1.031-.249-1.325-.167-.295-.451-.493-.851-.592-.223-.056-.49-.092-.8-.109-.312-.016-.64-.024-.984-.024-.345-.001-.672.007-.984.023z"/><path d="m85.231 85.927c.034.122.061.204.083.242.022.039.061.058.117.058.055 0 .116-.1.183-.3l2.869-9.323c.034-.112.106-.167.217-.167h2.168c.089 0 .133.033.133.1l-3.386 10.874c-.133.434-.378.706-.734.817s-.84.167-1.451.167c-.634 0-1.132-.056-1.493-.167s-.609-.384-.742-.817l-3.352-10.874c0-.067.039-.1.117-.1h2.185c.111 0 .183.05.217.15z"/><path d="m92.019 78.989c0-.755.206-1.37.618-1.843.411-.472 1.006-.709 1.785-.709h5.654c.145 0 .217.055.217.167v1.834c0 .111-.056.167-.167.167h-5.521c-.111 0-.167.061-.167.183v2.268c0 .111.056.167.167.167h5.12c.111 0 .167.056.167.167v1.918c0 .111-.056.167-.167.167h-5.12c-.111 0-.167.056-.167.167v2.418c0 .112.056.167.167.167h5.521c.111 0 .167.056.167.167v1.834c0 .111-.056.167-.167.167h-6.456c-.2 0-.4-.053-.6-.159-.201-.105-.379-.241-.534-.408-.156-.167-.281-.353-.375-.559-.095-.206-.143-.414-.143-.625v-7.655z"/><path d="m109.398 86.395v1.834c0 .111-.056.167-.167.167h-4.587c-.089 0-.172 0-.249 0-.078 0-.145-.005-.201-.016-.923-.078-1.579-.348-1.968-.809-.39-.461-.584-1.159-.584-2.093v-8.873c0-.112.056-.167.167-.167h2.085c.111 0 .167.055.167.167v9.072c0 .367.217.551.65.551h4.52c.111 0 .167.056.167.167z"/><path d="m110.148 86.311c0-.111.055-.167.166-.167h1.919c.111 0 .166.056.166.167v1.918c0 .111-.055.167-.166.167h-1.919c-.111 0-.166-.056-.166-.167z"/><path d="m113.6 82.408c0-.656.005-1.223.016-1.701s.045-.867.101-1.168c.089-.434.183-.823.283-1.168.1-.344.233-.628.4-.85.223-.289.501-.543.834-.759.334-.217.69-.37 1.068-.458.267-.056.617-.09 1.051-.101.434-.01.951-.016 1.551-.016.601 0 1.118.006 1.551.016.434.011.784.045 1.051.101.378.089.734.241 1.067.458.334.217.612.47.835.759.166.222.3.506.4.85.1.345.194.734.283 1.168.056.3.09.689.101 1.168.01.478.016 1.045.016 1.701v.1c0 .657-.006 1.224-.016 1.702-.011.477-.045.867-.101 1.167-.089.434-.183.824-.283 1.168-.1.345-.234.629-.4.851-.223.289-.501.542-.835.758-.333.217-.689.37-1.067.459-.267.056-.617.089-1.051.1s-.951.017-1.551.017c-.601 0-1.118-.006-1.551-.017-.434-.011-.784-.044-1.051-.1-.378-.09-.734-.242-1.068-.459-.333-.217-.611-.469-.834-.758-.167-.222-.3-.506-.4-.851-.1-.344-.194-.734-.283-1.168-.056-.299-.09-.689-.101-1.167s-.016-1.045-.016-1.702zm4.32-3.895c-.312.017-.578.053-.8.109-.4.1-.684.297-.851.592-.167.294-.249.736-.249 1.325v3.836c0 .59.082 1.032.249 1.326.167.295.451.492.851.592.222.055.489.092.8.108.312.016.639.025.984.025.344 0 .673-.009.984-.025.31-.016.577-.053.8-.108.4-.101.684-.297.851-.592.166-.294.249-.736.249-1.326v-3.835c0-.589-.083-1.031-.249-1.325-.167-.295-.451-.493-.851-.592-.223-.056-.49-.092-.8-.109-.312-.016-.64-.024-.984-.024-.345-.001-.673.007-.984.023z"/><path d="m125.66 76.438h6.204c.312 0 .618.061.918.183.299.122.595.334.884.633.5.523.768 1.312.8 2.369v.384c0 .978-.116 1.69-.35 2.135-.156.223-.317.426-.484.609s-.395.353-.684.509c-.011.011-.024.027-.042.05-.016.022-.024.05-.024.083 0 .022.005.045.016.066.256.334.437.626.543.875.105.25.203.509.291.776l.918 2.819c.021.09.063.17.124.242s.093.119.093.141c0 .056-.034.083-.101.083h-2.302c-.066 0-.138-.058-.217-.175-.077-.117-.127-.214-.15-.292l-1.034-2.919c-.156-.623-.472-.967-.951-1.034h-2.035c-.111 0-.167.056-.167.167v4.086c0 .111-.055.167-.166.167h-2.085c-.112 0-.167-.056-.167-.167v-11.623c.001-.112.056-.167.168-.167zm2.417 2.168c-.111 0-.167.055-.167.166v2.719c0 .111.061.167.184.167h3.018c.156 0 .328-.077.517-.234.156-.133.275-.328.358-.583s.125-.54.125-.851c0-.155-.008-.297-.024-.425-.017-.128-.053-.247-.109-.359-.178-.366-.389-.567-.633-.6z"/><path d="m144.69 76.438c.111 0 .166.055.166.167v1.834c0 .111-.055.167-.166.167h-5.104c-.1 0-.217.042-.35.124-.133.083-.259.189-.376.318-.116.127-.217.262-.3.4-.083.139-.124.259-.124.358v4.353c0 .612.138 1.107.416 1.485s.634.567 1.068.567h2.035c.211 0 .397-.039.558-.117.162-.077.295-.172.401-.284.105-.111.183-.23.233-.358.05-.127.075-.241.075-.342v-1.55c0-.111-.056-.167-.167-.167h-2.719c-.111 0-.167-.056-.167-.167v-1.834c0-.111.056-.167.167-.167h5.188c.111 0 .167.056.167.167v3.752c0 .257-.059.57-.175.943-.117.373-.309.728-.576 1.067-.267.34-.62.631-1.059.876-.44.244-.987.366-1.643.366h-2.902c-.533 0-1.006-.122-1.417-.366-.412-.245-.759-.554-1.042-.926-.284-.373-.498-.784-.642-1.234-.145-.451-.217-.887-.217-1.309v-4.737c0-.368.08-.751.241-1.151.162-.4.381-.768.66-1.1.277-.334.6-.606.967-.817.366-.211.761-.317 1.184-.317h3.453 2.167z"/></g></svg>